**ABCDEFGHIJKLMNOPQRSTUVWXYZabcdefghijklmnopqrstuvwxyz**************************
**PARASOLID !"#$%&'()*+,-./:;<=>?@[\]^_`{|}~0123456789**************************
**PART1;
MC=unknown;
MC_MODEL=unknown;
MC_ID=unknown;
OS=unknown;
OS_RELEASE=unknown;
FRU=sdl_parasolid_customer_support;
APPL=parasolid_acceptance_tests;
SITE=unknown;
USER=unknown;
FORMAT=text;
GUISE=transmit;
KEY=/users/hakimm2/SCOREC/inclusion_solver/meshes/simx/setup_5x1_nat.x_t;
FILE=/users/hakimm2/SCOREC/inclusion_solver/meshes/simx/setup_5x1_nat.x_t;
DATE=unknown;
**PART2;
SCH=SCH_3200152_32001;
USFLD_SIZE=1;
**PART3;
**END_OF_HEADER*****************************************************************
T51 : TRANSMIT FILE created by modeller version 320015223 SCH_3200152_32001_1300
6227 1 12 34 CCCCCCI4 mesh1006 0 I8 polyline1008 0 CCCCCCCDI5 owner1040 0 CCCCCC
I13 boundary_mesh1006 0 I17 boundary_polyline1008 0 CCCA16 index_map_offset0 0 1
 dA9 index_map82 0 A17 node_id_index_map82 0 A20 schema_embedding_map82 0 A5 chi
ld12 0 A14 lowest_node_id0 0 1 dA16 mesh_offset_data206 0 Z1 4568 2 3 0 0 0 0 0
 0 1e3 1e-8 0 0 0 1 0 6 1 0 4 5 6 0 0 7 8 9 0 0 0 0 0 0 0 0 81 255 1 2 4523 10 1
 11 0 11 0 0 0 70 11 CI9 list_type0 0 1 uI10 notransmit0 0 1 lCCCDCCDI12 finger_
index0 0 1 dI12 finger_block1012 0 CZ3 0 4 T1 0 0 6 20 1 12 12 0 50 255 4 86 0 1
3 14 0 0 +.55 -.55 0 0 1 0 0 0 1 0 30 255 5 90 0 15 16 0 0 +.55 -.55 0 0 0 1 0 2
9 255 6 67 0 17 18 0 .55 .55 .4 0 19 8 CCCCCCCA5 owner12 0 Z7 4470 0 1 19 0 20 V
0 0 16 255 8 73 21 ?22 0 23 16 0 0 1 0 18 255 9 15 0 24 0 25 26 ?1 0 17 255 24 0
 27 28 29 9 30 31 0 32 +0 18 25 10 0 29 9 33 34 ?1 0 29 26 17 0 9 34 35 .55 .55
 0 0 29 34 12 0 25 36 26 -.55 .55 0 0 29 35 70 0 37 26 38 .55 -.55 .4 0 18 37 60
 0 39 40 0 35 ?1 0 29 38 69 0 40 35 18 -.55 -.55 .4 0 18 40 58 0 41 42 37 38 ?1
 0 29 18 68 0 42 38 6 -.55 .55 .4 0 18 42 56 0 43 17 40 18 ?1 0 17 43 0 44 45 22
 42 41 46 0 47 +0 18 17 54 0 48 49 42 6 ?1 0 17 48 0 50 32 47 17 51 52 0 53 +0 1
8 49 2 0 28 33 17 54 ?1 0 17 28 0 27 55 24 49 56 57 0 58 +0 18 33 5 0 59 25 49 3
6 ?1 0 29 54 4 0 49 0 36 .55 -.55 0 0 29 36 7 0 33 54 34 -.55 -.55 0 0 17 59 0 4
4 22 45 33 29 60 0 55 -0 15 255 44 79 0 43 61 0 0 17 22 0 44 43 59 40 62 8 0 63
 +0 17 45 0 44 59 43 25 47 23 0 30 -0 17 29 0 27 24 55 25 59 60 0 45 +0 16 60 11
 64 ?29 31 65 66 0 0 1 0 17 55 0 27 29 28 33 67 65 0 62 +0 15 27 23 0 55 68 0 0
 17 67 0 69 70 62 49 55 65 0 0 -0 16 65 6 71 ?55 60 72 73 0 0 1 0 17 62 0 69 67
 63 33 22 8 0 0 -0 15 69 81 0 63 13 0 0 17 63 0 69 62 70 40 74 75 0 0 +0 17 70 0
 69 63 67 37 58 15 0 74 +0 17 74 0 76 77 41 37 63 75 0 0 -0 16 75 52 78 ?63 46 0
 79 0 0 1 0 81 1 78 116 80 75 0 0 81 82 83 0 16 46 50 84 ?43 52 75 85 0 0 1 0 30
 79 66 0 75 86 85 0 +.55 -.55 .4 -1 0 0 0 30 86 22 0 57 87 79 0 +.55 .55 0 0 -1
 0 0 30 85 65 0 46 79 88 0 +-.55 -.55 .4 0 1 0 0 30 88 64 0 52 85 89 0 +-.55 .55
 .4 1 0 0 0 16 52 48 90 ?48 72 46 88 0 0 1 0 30 89 63 0 72 88 91 0 +.55 .55 .4 0
 -1 0 0 16 72 46 92 ?39 65 52 89 0 0 1 0 30 91 87 0 93 89 94 0 +.55 .55 0 0 0 1
 0 16 93 71 95 ?53 23 15 91 0 0 1 0 30 94 88 0 23 91 16 0 +-.55 .55 0 0 0 1 0 16
 23 72 82 ?47 8 93 94 0 0 1 0 30 16 89 0 8 94 5 0 +-.55 -.55 0 0 0 1 0 81 1 82 1
17 80 23 0 0 78 95 96 0 17 47 0 50 48 30 42 45 23 0 51 +0 15 50 77 0 48 97 0 0 1
7 30 0 50 47 32 25 24 31 0 0 -0 17 51 0 76 41 77 42 48 52 0 0 -0 15 76 45 0 74 9
8 0 0 17 41 0 76 74 51 40 43 46 0 22 -0 17 77 0 76 51 74 17 39 72 0 0 -0 17 39 0
 99 58 53 37 77 72 0 70 +0 15 99 75 0 39 100 0 0 17 58 0 99 56 39 49 70 15 0 67
 -0 17 53 0 99 39 56 17 32 93 0 77 +0 17 56 0 99 53 58 9 28 57 0 0 -0 17 32 0 50
 30 48 9 53 93 0 56 -0 16 57 20 81 ?28 15 31 86 0 0 1 0 81 1 81 115 80 57 0 0 92
 78 101 0 16 15 74 102 ?70 93 57 5 0 0 1 0 16 31 16 103 ?24 57 60 87 0 0 1 0 81
 1 103 123 80 31 0 0 90 104 105 0 30 87 19 0 31 66 86 0 +-.55 .55 0 1 0 0 0 30 6
6 14 0 60 73 87 0 +-.55 -.55 0 0 1 0 0 30 73 9 0 65 106 66 0 +.55 -.55 0 -1 0 0
 0 32 255 106 474 0 1 107 73 108 +0 -14210854715202e-30 .2 1 0 0 0 -.5 .86602540
3784439 .1 .04 0 32 107 479 0 1 109 106 110 +0 .4 .2 1 0 0 0 -.5 .86602540378443
9 .1 .04 0 141 255 108 111 108 108 106 0 68 255 111 449 0 112 113 114 0 +106 0 0
 .2 0 .5 -.866025403784439 0 -.05 .286602540378444 0 .05 .113397459621556 0 3.14
1592653589795 0 -.866025403784439 -.5 0 0 14 255 112 286 115 ?0 0 0 116 111 +0 0
 0 0 117 0 68 113 454 0 118 119 111 0 +107 0 .4 .2 0 .5 -.866025403784439 0 .35
 .286602540378444 0 .45 .113397459621556 0 3.141592653589795 0 -.866025403784439
 -.5 ?0 50 114 25 0 68 111 120 0 +0 0 0 0 0 -1 -1 0 0 0 14 68 24 121 ?98 100 27
 122 114 +0 0 98 100 20 0 50 120 62 0 98 114 123 0 +0 0 .4 0 0 -1 -1 0 0 0 14 98
 42 124 ?0 68 76 122 120 -0 0 0 68 20 0 50 123 83 0 100 120 125 0 +.55 .55 0 -1
 0 0 0 0 1 0 14 100 76 126 ?68 97 99 122 123 -0 0 68 97 20 0 50 125 84 0 97 123
 14 0 +-.55 .55 0 0 -1 0 0 0 -1 0 14 97 78 127 ?100 61 50 122 125 -0 0 100 61 20
 0 50 14 85 0 61 125 4 0 +-.55 -.55 0 1 0 0 0 0 -1 0 14 61 80 128 ?97 13 44 122
 14 -0 0 97 13 20 0 81 1 128 534 129 61 104 0 130 127 131 0 14 13 82 130 ?61 0 6
9 122 4 -0 0 61 0 20 0 13 255 122 91 0 0 132 13 0 0 19 0 0 13 20 3 0 0 0 0 0 0 7
 13 0 13 132 248 0 0 116 133 0 0 19 0 0 19 19 92 134 1 135 7 122 S0 0 81 1 134 4
543 136 19 0 0 0 137 138 0 19 135 714 137 1 139 19 140 S0 0 81 1 137 4548 136 13
5 0 0 134 141 142 0 19 139 4494 141 1 143 135 117 S0 0 13 140 386 0 0 0 0 0 0 13
5 133 0 14 133 250 144 ?0 0 0 132 145 +0 0 0 0 140 0 81 1 144 543 129 133 146 0
 124 115 147 0 68 145 464 0 133 148 119 0 +149 0 .2 .2 0 .5 -.866025403784439 0
 .15 .286602540378444 0 .25 .113397459621556 0 3.141592653589795 0 -.86602540378
4439 -.5 ?0 68 148 472 0 150 0 145 0 +151 0 -.2 .2 0 .5 -.866025403784439 0 -.25
 .286602540378444 0 -.15 .113397459621556 0 3.141592653589795 0 -.86602540378443
9 -.5 ?0 68 119 456 0 152 145 113 0 +109 0 -.4 .2 0 .5 -.866025403784439 0 -.45
 .286602540378444 0 -.35 .113397459621556 0 3.141592653589795 0 -.86602540378443
9 -.5 ?0 32 149 489 0 1 151 109 153 +0 .2 .2 1 0 0 0 -.5 .866025403784439 .1 .04
 0 32 151 497 0 1 0 149 154 +0 -.2 .2 1 0 0 0 -.5 .866025403784439 .1 .04 0 32 1
09 481 0 1 149 107 155 +0 -.4 .2 1 0 0 0 -.5 .866025403784439 .1 .04 0 141 153 1
45 153 153 149 0 141 155 119 155 155 109 0 141 154 148 154 154 151 0 14 152 303
 156 ?0 0 0 157 119 +0 0 0 0 158 0 81 1 156 552 129 152 159 0 115 160 161 0 13 1
57 301 0 0 162 152 0 0 19 0 0 13 158 413 0 0 0 0 0 0 143 152 0 19 143 2145 163 1
 164 139 158 S0 0 81 1 163 4557 136 143 0 0 141 165 166 0 19 164 1992 165 1 167
 143 168 S0 0 81 1 165 4559 136 164 0 0 163 169 170 0 19 167 1527 169 1 0 164 17
1 S0 0 13 168 419 0 0 0 0 0 0 164 118 0 14 118 315 160 ?0 0 0 162 113 +0 0 0 0 1
68 0 81 1 160 554 129 118 172 0 156 173 174 0 13 162 313 0 0 175 118 0 0 19 0 0
 13 175 331 0 0 0 150 0 0 19 0 0 14 150 333 173 ?0 0 0 175 148 +0 0 0 0 171 0 81
 1 173 557 129 150 176 0 160 0 177 0 13 171 428 0 0 0 0 0 0 167 150 0 80 255 1 1
29 0 178 8001 0 0 0 0 3 5 0 0 0 FFFFTFTFFFFFFF2 0 81 1 176 522 80 150 0 173 146
 179 180 0 83 255 3 177 .5960784 .6666667 .6862745 0 80 1 80 181 182 9000 1 1 1
 1 1 1 1 1 0 FFFFTFTFFFFFFF3 0 81 1 146 517 80 133 0 144 183 176 184 0 81 1 179
 523 80 112 0 115 176 172 185 0 84 255 32 180 4eae208e2498c7cf2185b47c1b2f0ec40
 81 1 115 549 129 112 179 0 144 156 186 0 81 1 172 526 80 118 0 160 179 159 187
 0 84 32 185 bad3c849b41af7cfa3f1d71dcbfbf5180 81 1 159 527 80 152 0 156 172 0 1
88 0 84 32 187 bf7eb2dc6425a121a161cbcbd5e9cf360 84 32 188 14b206b85ddab30d81647
1933e0676280 83 3 186 .5960784 .6666667 .6862745 0 81 1 183 129 80 100 0 126 189
 146 190 0 84 32 184 db51a1a6a0a623c9856f57079d6def9c0 81 1 126 536 129 100 183
 0 127 121 191 0 81 1 189 128 80 13 0 130 192 183 193 0 84 32 190 86a9223cd20ef5
ae8d8031f27305fa830 81 1 130 533 129 13 189 0 0 128 194 0 81 1 192 127 80 98 0 1
24 195 189 196 0 84 32 193 5ffbd2037fb241d3f6919210f7f795ef0 81 1 124 538 129 98
 192 0 121 144 197 0 81 1 195 126 80 97 0 127 198 192 199 0 84 32 196 43880380fb
964e2a6104206f3a5c5fa60 81 1 127 535 129 97 195 0 128 126 200 0 81 1 198 125 80
 68 0 121 104 195 201 0 84 32 199 ab3ff7ab34b34c133b23e85fd7560e690 81 1 121 537
 129 68 198 0 126 124 202 0 81 1 104 124 80 61 0 128 103 198 203 0 84 32 201 08c
73b05224c1019b531a40e35a341b50 84 32 203 076ef0994a6daecce3cc730da47f59650 83 3
 202 .5960784 .6666667 .6862745 0 83 3 200 .5960784 .6666667 .6862745 0 83 3 197
 .5960784 .6666667 .6862745 0 83 3 194 .5960784 .6666667 .6862745 0 83 3 191 .59
60784 .6666667 .6862745 0 79 255 15 182 UGS/ObjectState0 79 15 178 SDL/TYSA_COLO
UR0 83 3 174 .5960784 .6666667 .6862745 0 81 1 169 4562 136 167 0 0 165 0 204 0
 80 1 136 10 205 9000 0 0 0 0 3 6 0 0 0 TTTFTFTTFFFFTF3 0 84 6 204 Part 10 79 11
 205 SimPartName0 84 6 170 Part 10 81 1 141 4554 136 139 0 0 137 163 206 0 84 6
 166 Part 10 84 6 206 Part 10 83 3 161 .5960784 .6666667 .6862745 0 83 3 147 .59
60784 .6666667 .6862745 0 13 117 404 0 0 0 0 0 0 139 112 0 84 6 142 Part 10 84 6
 138 Part 10 13 116 284 0 0 157 112 0 0 19 0 0 83 3 131 .5960784 .6666667 .68627
45 0 141 110 113 110 110 107 0 81 1 90 122 80 52 0 0 71 103 207 0 84 32 105 9793
5453c32343e9d6cd4c99c6428a1c0 81 1 71 121 80 65 0 0 102 90 208 0 84 32 207 5e024
18605c9de28dcfff9d3e301fc9d0 81 1 102 120 80 15 0 0 84 71 209 0 84 32 208 deccb9
a271b7660b55ec5afba9a2a7f20 81 1 84 119 80 46 0 0 95 102 210 0 84 32 209 9fd20ea
cbf2445c5f110717186fb1e1b0 81 1 95 118 80 93 0 0 82 84 211 0 84 32 210 0ad658169
b14a3e33f1c5bbd97b3547b0 84 32 211 8a0fc930cfd21ffc43025d4051b410c20 81 1 92 114
 80 72 0 0 21 81 212 0 84 32 101 c06bf638288924317aa147407c60b37b0 81 1 21 113 8
0 8 0 0 64 92 213 0 84 32 212 a3f6df2d0b737b65eee7fbcc98f60b540 81 1 64 112 80 6
0 0 0 0 21 214 0 84 32 213 6d510e946592a644f8be6d92a4e9bf1e0 84 32 214 2346e4788
60eb4c9a6e50d2af24caacc0 84 32 96 cb950e175ebb6f673aaf1736d39cc6f60 84 32 83 60d
b087b575ff6eaa9b6b9fe0289dd370 74 4 CI16 index_map_offset0 0 1 dCCZ20 12 6 0 0 1
59 215 173 216 2 169 0 0 0 0 0 0 0 0 0 0 0 0 0 0 0 81 2 215 503 217 1 0 216 0 0
 218 219 0 81 1 216 564 220 1 215 221 0 0 222 0 80 1 220 80 223 9000 0 0 0 0 3 5
 0 0 0 FFTFFFFFFFFFFF1 0 81 1 221 755 10 1 216 224 0 224 0 0 82 255 1 222 129 0
 80 1 10 220 225 9000 0 0 0 0 3 6 0 0 0 FFTFTFTTFFFFTF9 0 81 1 224 912 10 1 221
 226 221 226 0 0 81 1 226 1069 10 1 224 227 224 227 0 0 81 1 227 1226 10 1 226 2
28 226 228 0 0 81 1 228 1383 10 1 227 229 227 229 0 0 81 1 229 1540 10 1 228 230
 228 230 0 0 81 1 230 1697 10 1 229 231 229 231 0 0 81 1 231 1854 10 1 230 232 2
30 232 0 0 81 1 232 2011 10 1 231 233 231 233 0 0 81 1 233 2168 10 1 232 234 232
 234 0 0 81 1 234 2325 10 1 233 235 233 235 0 0 81 1 235 2482 10 1 234 236 234 2
36 0 0 81 1 236 2639 10 1 235 237 235 237 0 0 81 1 237 2796 10 1 236 238 236 238
 0 0 81 1 238 2953 10 1 237 239 237 239 0 0 81 1 239 3110 10 1 238 240 238 240 0
 0 81 1 240 3267 10 1 239 241 239 241 0 0 81 1 241 3424 10 1 240 242 240 242 0 0
 81 1 242 3581 10 1 241 243 241 243 0 0 81 1 243 3738 10 1 242 244 242 244 0 0 8
1 1 244 3895 10 1 243 245 243 245 0 0 81 1 245 4052 10 1 244 246 244 246 0 0 81
 1 246 4209 10 1 245 11 245 11 0 0 81 1 11 4366 10 1 246 2 246 2 0 0 79 23 225 S
im_NM_AssemblyModelAtt0 79 24 223 UG2/BODY_COLOR_ATTRIBUTE0 80 2 217 247 248 800
4 0 0 0 0 3 5 0 0 0 FFTFFFFFFFFFFF2 3 0 83 1 218 7830.64 0 84 8 219 Kg/Cu M 0 79
 16 248 SDL/TYSA_DENSITY0 1 0 
